<svg xmlns="http://www.w3.org/2000/svg" xmlns:xlink="http://www.w3.org/1999/xlink" width="298pt" height="112" viewBox="0 0 298 84"><g id="graph0" class="graph" transform="scale(1 1) rotate(0) translate(4 80)"><title>CGL::HalfedgeElement</title><polygon fill="#fff" stroke="none" points="-4 4 -4 -80 294 -80 294 4 -4 4"/><g id="node1" class="node"><title>Node1</title><polygon fill="#bfbfbf" stroke="#000" points="77.5 -56.5 77.5 -75.5 204.5 -75.5 204.5 -56.5 77.5 -56.5"/><text x="141" y="-63.5" font-family="Calibri" font-size="10" text-anchor="middle">CGL::HalfedgeElement</text></g><g id="node2" class="node"><title>Node2</title><g id="a_node2"><a target="_top" xlink:href="class_c_m_u462_1_1_face.html" xlink:title="A Face is a single polygon in the mesh."><polygon fill="#fff" stroke="#000" points="0 -.5 0 -19.5 76 -19.5 76 -.5 0 -.5"/><text x="38" y="-7.5" font-family="Calibri" font-size="10" text-anchor="middle">CGL::Face</text></a></g></g><g id="edge1" class="edge"><title>Node1-&gt;Node2</title><path fill="none" stroke="#191970" d="M115.421,-51.5895C96.3766,-41.6052 70.9356,-28.2672 54.5077,-19.6545"/><polygon fill="#191970" stroke="#191970" points="113.969 -54.781 124.451 -56.324 117.22 -48.581 113.969 -54.781"/></g><g id="node3" class="node"><title>Node3</title><g id="a_node3"><a target="_top" xlink:href="class_c_m_u462_1_1_halfedge.html" xlink:title="A Halfedge is the basic &quot;glue&quot; between mesh elements, pointing to its associated vertex, edge, and face, as will as its twin and next halfedges."><polygon fill="#fff" stroke="#000" points="94 -.5 94 -19.5 188 -19.5 188 -.5 94 -.5"/><text x="141" y="-7.5" font-family="Calibri" font-size="10" text-anchor="middle">CGL::Halfedge</text></a></g></g><g id="edge2" class="edge"><title>Node1-&gt;Node3</title><path fill="none" stroke="#191970" d="M141,-45.8045C141,-36.9102 141,-26.7798 141,-19.7511"/><polygon fill="#191970" stroke="#191970" points="137.5 -46.083 141 -56.083 144.5 -46.083 137.5 -46.083"/></g><g id="node4" class="node"><title>Node4</title><g id="a_node4"><a target="_top" xlink:href="class_c_m_u462_1_1_vertex.html" xlink:title="A Vertex encodes one of the mesh vertices."><polygon fill="#fff" stroke="#000" points="206 -.5 206 -19.5 290 -19.5 290 -.5 206 -.5"/><text x="248" y="-7.5" font-family="Calibri" font-size="10" text-anchor="middle">CGL::Vertex</text></a></g></g><g id="edge3" class="edge"><title>Node1-&gt;Node4</title><path fill="none" stroke="#191970" d="M167.302,-51.7261C187.115,-41.7271 213.707,-28.3065 230.851,-19.6545"/><polygon fill="#191970" stroke="#191970" points="165.542 -48.694 158.191 -56.324 168.696 -54.943 165.542 -48.694"/></g></g></svg>