<svg xmlns="http://www.w3.org/2000/svg" xmlns:xlink="http://www.w3.org/1999/xlink" width="265pt" height="104pt" viewBox="0 0 265 104"><g id="graph0" class="graph" transform="scale(1 1) rotate(0) translate(4 100)"><title>Graphical Class Hierarchy</title><polygon fill="#fff" stroke="none" points="-4 4 -4 -100 261 -100 261 4 -4 4"/><g id="node1" class="node"><title>Node1</title><g id="a_node1"><a target="_top" xlink:href="class_c_m_u462_1_1_halfedge_element.html" xlink:title="HalfedgeElement is the base type for all mesh elements (halfedges, vertices, edges, and faces)."><polygon fill="#fff" stroke="#000" points="0 -38.5 0 -57.5 127 -57.5 127 -38.5 0 -38.5"/><text x="63.5" y="-45.5" font-family="Calibri" font-size="10" text-anchor="middle">CGL::HalfedgeElement</text></a></g></g><g id="node2" class="node"><title>Node2</title><g id="a_node2"><a target="_top" xlink:href="class_c_m_u462_1_1_face.html" xlink:title="A Face is a single polygon in the mesh."><polygon fill="#fff" stroke="#000" points="172 -76.5 172 -95.5 248 -95.5 248 -76.5 172 -76.5"/><text x="210" y="-83.5" font-family="Calibri" font-size="10" text-anchor="middle">CGL::Face</text></a></g></g><g id="edge1" class="edge"><title>Node1-&gt;Node2</title><path fill="none" stroke="#191970" d="M110.833,-60.1843C130.894,-65.46 154.029,-71.5438 172.799,-76.4799"/><polygon fill="#191970" stroke="#191970" points="111.525 -56.747 100.963 -57.589 109.744 -63.517 111.525 -56.747"/></g><g id="node3" class="node"><title>Node3</title><g id="a_node3"><a target="_top" xlink:href="class_c_m_u462_1_1_halfedge.html" xlink:title="A Halfedge is the basic &quot;glue&quot; between mesh elements, pointing to its associated vertex, edge, and face, as will as its twin and next halfedges."><polygon fill="#fff" stroke="#000" points="163 -38.5 163 -57.5 257 -57.5 257 -38.5 163 -38.5"/><text x="210" y="-45.5" font-family="Calibri" font-size="10" text-anchor="middle">CGL::Halfedge</text></a></g></g><g id="edge2" class="edge"><title>Node1-&gt;Node3</title><path fill="none" stroke="#191970" d="M137.264,-48C145.997,-48 154.719,-48 162.921,-48"/><polygon fill="#191970" stroke="#191970" points="137.039 -44.5 127.039 -48 137.039 -51.5 137.039 -44.5"/></g><g id="node4" class="node"><title>Node4</title><g id="a_node4"><a target="_top" xlink:href="class_c_m_u462_1_1_vertex.html" xlink:title="A Vertex encodes one of the mesh vertices."><polygon fill="#fff" stroke="#000" points="168 -.5 168 -19.5 252 -19.5 252 -.5 168 -.5"/><text x="210" y="-7.5" font-family="Calibri" font-size="10" text-anchor="middle">CGL::Vertex</text></a></g></g><g id="edge3" class="edge"><title>Node1-&gt;Node4</title><path fill="none" stroke="#191970" d="M110.833,-35.8157C130.894,-30.54 154.029,-24.4562 172.799,-19.5201"/><polygon fill="#191970" stroke="#191970" points="109.744 -32.483 100.963 -38.411 111.525 -39.253 109.744 -32.483"/></g></g></svg>